<svg width="63" height="56" viewBox="0 0 63 56" fill="none" xmlns="http://www.w3.org/2000/svg">
<path d="M38.8502 18.2686C35.4153 16.232 33.0406 17.3263 32.9057 12.4932H32.8855H32.8823H32.862C32.7271 17.3263 30.3524 16.232 26.9176 18.2686C23.4828 20.3052 23.574 23.5778 23.574 23.5778H32.862H32.9057H42.1938C42.1938 23.5778 42.285 20.3052 38.8502 18.2686Z" fill="#FDC651"/>
<path opacity="0.4" d="M38.8502 18.2687C37.8738 17.6898 36.9832 17.3639 36.2052 17.0829C33.939 19.3063 30.1588 21.4743 24.0178 21.5351C23.5493 22.6815 23.574 23.578 23.574 23.578H32.8621H32.9058H42.1938C42.1938 23.578 42.285 20.3053 38.8502 18.2687Z" fill="#FFAB2A"/>
<path d="M9.96623 18.0658L10.1116 15.2794L10.2094 18.0658H9.96623Z" fill="#FCD466"/>
<path opacity="0.4" d="M9.96623 18.0658L10.1116 15.2794L10.2094 18.0658H9.96623Z" fill="#FFAB2A"/>
<path d="M10.0828 17.3312C10.2255 17.3312 10.3411 17.2155 10.3411 17.0728C10.3411 16.9301 10.2255 16.8145 10.0828 16.8145C9.94008 16.8145 9.8244 16.9301 9.8244 17.0728C9.8244 17.2155 9.94008 17.3312 10.0828 17.3312Z" fill="#FCD466"/>
<path opacity="0.4" d="M10.2884 16.9183C10.2886 16.9227 10.2897 16.9267 10.2897 16.9311C10.2897 17.0738 10.174 17.1895 10.0313 17.1895C9.94692 17.1895 9.87269 17.1484 9.82552 17.0858C9.83232 17.2224 9.94431 17.3314 10.0826 17.3314C10.2253 17.3314 10.341 17.2157 10.341 17.073C10.341 17.0147 10.321 16.9616 10.2884 16.9183Z" fill="#FFAB2A"/>
<path d="M10.1116 16.6727C10.2039 16.6727 10.2787 16.5978 10.2787 16.5055C10.2787 16.4132 10.2039 16.3383 10.1116 16.3383C10.0192 16.3383 9.94438 16.4132 9.94438 16.5055C9.94438 16.5978 10.0192 16.6727 10.1116 16.6727Z" fill="#FCD466"/>
<path opacity="0.4" d="M10.2231 16.3813C10.2293 16.3988 10.2332 16.4172 10.2332 16.4367C10.2332 16.5291 10.1584 16.6039 10.066 16.6039C10.023 16.6039 9.9842 16.5872 9.95459 16.5605C9.97751 16.6254 10.0388 16.6723 10.1116 16.6723C10.204 16.6723 10.2788 16.5975 10.2788 16.5051C10.2788 16.4558 10.257 16.4119 10.2231 16.3813Z" fill="#FFAB2A"/>
<path d="M10.7361 20.3681V18.1822C10.7209 17.8073 10.2676 17.7617 10.189 17.7288C10.1105 17.6959 10.1029 17.6022 10.1029 17.6022L10.0971 17.6272L10.0912 17.6022C10.0912 17.6022 10.0836 17.6959 10.0051 17.7288C9.92653 17.7617 9.47326 17.8074 9.458 18.1822V20.3681L9.429 20.4923C9.429 20.8533 9.7216 21.1459 10.0825 21.1459C10.0874 21.1459 10.0921 21.1453 10.097 21.1451C10.1019 21.1453 10.1066 21.1459 10.1115 21.1459C10.4724 21.1459 10.765 20.8533 10.765 20.4923L10.7361 20.3681Z" fill="#FCD263"/>
<path opacity="0.4" d="M10.7363 20.3681V18.1822C10.721 17.8073 10.2678 17.7617 10.1892 17.7288C10.1107 17.6959 10.1031 17.6022 10.1031 17.6022L10.0972 17.6272L10.0914 17.6022C10.0914 17.6022 10.0838 17.6959 10.0053 17.7288C9.98873 17.7357 9.95486 17.7435 9.91255 17.7545C10.0362 17.7886 10.4183 17.8553 10.4323 18.1993V20.3852L10.4613 20.5094C10.4613 20.8087 10.2599 21.0604 9.9855 21.1378C10.0173 21.1426 10.0496 21.1459 10.0828 21.1459C10.0877 21.1459 10.0924 21.1453 10.0973 21.1451C10.1022 21.1453 10.1069 21.1459 10.1118 21.1459C10.4727 21.1459 10.7653 20.8533 10.7653 20.4923L10.7363 20.3681Z" fill="#FFAB2A"/>
<path d="M10.1117 21.4802C10.7105 21.4802 11.1959 20.9948 11.1959 20.3961C11.1959 19.7973 10.7105 19.312 10.1117 19.312C9.513 19.312 9.02762 19.7973 9.02762 20.3961C9.02762 20.9948 9.513 21.4802 10.1117 21.4802Z" fill="#FEBD44"/>
<path d="M10.5167 19.3915C10.6044 19.5481 10.6549 19.7282 10.6549 19.9204C10.6549 20.5191 10.1695 21.0045 9.57068 21.0045C9.42727 21.0045 9.29073 20.976 9.16544 20.9254C9.35092 21.2566 9.70473 21.4807 10.1113 21.4807C10.7101 21.4807 11.1955 20.9953 11.1955 20.3966C11.1955 19.9412 10.9145 19.5522 10.5167 19.3915Z" fill="#FFAB2A"/>
<path d="M8.95282 21.5362L8.51712 21.4096L8.40569 20.8219L9.57091 20.3964H10.655L11.7696 20.8219L11.6682 21.4096L11.1211 21.6122L8.95282 21.5362Z" fill="#EF8F14"/>
<path d="M8.82835 21.0651L9.571 20.822H10.6551L11.3948 21.0651V22.2101L8.82835 22.2506V21.0651Z" fill="#FEBD44"/>
<path d="M8.82826 22.919L8.52727 22.7569L8.40569 22.2199L9.57091 21.764H10.6348L11.7696 22.2199L11.6784 22.8076L11.3947 22.919H8.82826Z" fill="#EA9315"/>
<path d="M8.82835 31.1861V22.6557L9.571 22.3923V31.0503L8.82835 31.1861Z" fill="#FFAB2A"/>
<path d="M10.5841 22.3923H9.57082V31.0503H10.5841V22.3923Z" fill="#FCD967"/>
<path d="M11.3947 22.6557L10.5842 22.3923V31.0503L11.3947 30.5183V22.6557Z" fill="#FFAB2A"/>
<path d="M7.95975 30.6851L7.54945 31.1157L10.5334 31.2829H11.1869L12.6257 31.0853L12.2609 30.6851L11.3034 30.2291L10.9184 30.0316H9.24151L7.95975 30.6851Z" fill="#FED76A"/>
<path d="M10.4019 24.0525V22.9075C10.4019 22.7229 10.2522 22.5732 10.0675 22.5732C9.88283 22.5732 9.73315 22.7229 9.73315 22.9075V24.0525H10.4019Z" fill="#1F263F"/>
<path d="M11.2226 23.9895V23.0494C11.2226 22.9152 11.1138 22.8063 10.9795 22.8063C10.8452 22.8063 10.7363 22.9152 10.7363 23.0494V24.066C10.8996 24.0517 11.0612 24.0204 11.2226 23.9895Z" fill="#1F263F"/>
<path d="M8.95654 23.9895V23.0494C8.95654 22.9152 9.06542 22.8063 9.19972 22.8063C9.33401 22.8063 9.44289 22.9152 9.44289 23.0494V24.066C9.27954 24.0517 9.11795 24.0204 8.95654 23.9895Z" fill="#1F263F"/>
<path d="M8.01068 31.8654L7.42804 31.683L7.54963 31.1156L9.26199 30.5786H10.944L12.6259 31.0852L12.7272 31.7033L12.1801 31.8654H8.01068Z" fill="#FFAB2A"/>
<path d="M11.8407 35.6856H8.33505V43.3456H11.8407V35.6856Z" fill="#FBAF2F"/>
<path d="M11.8405 35.6856H10.0775V43.3456H11.8405V35.6856Z" fill="#E89823"/>
<path d="M10.8917 41.819V37.5232C10.8917 37.0794 10.5318 36.7195 10.0879 36.7195C9.64398 36.7195 9.28409 37.0794 9.28409 37.5232V41.819H10.8917Z" fill="#1F263F"/>
<path d="M10.0879 36.7195C9.64398 36.7195 9.28409 37.0794 9.28409 37.5232V37.8245C9.28409 37.3806 9.64398 37.0207 10.0879 37.0207C10.5318 37.0207 10.8917 37.3806 10.8917 37.8245V37.5232C10.8917 37.0794 10.5318 36.7195 10.0879 36.7195Z" fill="#1F263F"/>
<path d="M8.33517 35.6856L8.01083 34.6293H12.1904L11.8408 35.6856H8.33517Z" fill="#EA9315"/>
<path d="M10.9437 31.0501H9.2567V34.6293H10.9437V31.0501Z" fill="#FCD967"/>
<path d="M8.01083 31.4453V34.6293H9.25709V31.0501L8.01083 31.4453Z" fill="#FFAB2A"/>
<path d="M10.9441 31.0501L12.1904 31.5061V34.6293H10.9441V31.0501Z" fill="#FFAB2A"/>
<path d="M10.7462 32.3268H9.40871V34.0898H10.7462V32.3268Z" fill="#1F263F"/>
<path d="M9.12525 32.3268L8.12216 32.5244V33.9125L9.12525 34.0898V32.3268Z" fill="#1F263F"/>
<path d="M11.0655 32.3268L12.0686 32.5244V33.9125L11.0655 34.0898V32.3268Z" fill="#1F263F"/>
<path d="M8.01083 31.8654V31.3337L9.25709 30.8525H10.9441L12.1904 31.506L12.1802 31.8654H8.01083Z" fill="#CECBC0"/>
<path d="M9.571 20.822V21.7643L8.82835 22.0548V21.0651L9.571 20.822Z" fill="#FFAB2A"/>
<path d="M10.655 20.822L10.6347 21.7643L11.3947 22.0696V21.0651L10.655 20.822Z" fill="#FFAB2A"/>
<path d="M18.3736 2.78634L18.519 0L18.6167 2.78634H18.3736Z" fill="#FCD466"/>
<path opacity="0.4" d="M18.3736 2.78634L18.519 0L18.6167 2.78634H18.3736Z" fill="#FFAB2A"/>
<path d="M18.4899 2.05178C18.6326 2.05178 18.7482 1.9361 18.7482 1.79341C18.7482 1.65071 18.6326 1.53503 18.4899 1.53503C18.3472 1.53503 18.2315 1.65071 18.2315 1.79341C18.2315 1.9361 18.3472 2.05178 18.4899 2.05178Z" fill="#FCD466"/>
<path opacity="0.4" d="M18.6958 1.63885C18.6961 1.64323 18.6971 1.64731 18.6971 1.65168C18.6971 1.79436 18.5814 1.91005 18.4387 1.91005C18.3543 1.91005 18.2801 1.86896 18.2329 1.8064C18.2397 1.943 18.3517 2.05194 18.49 2.05194C18.6327 2.05194 18.7484 1.93626 18.7484 1.79357C18.7484 1.73527 18.7284 1.68214 18.6958 1.63885Z" fill="#FFAB2A"/>
<path d="M18.519 1.39326C18.6113 1.39326 18.6862 1.31841 18.6862 1.22608C18.6862 1.13375 18.6113 1.0589 18.519 1.0589C18.4267 1.0589 18.3518 1.13375 18.3518 1.22608C18.3518 1.31841 18.4267 1.39326 18.519 1.39326Z" fill="#FCD466"/>
<path opacity="0.4" d="M18.6304 1.10193C18.6366 1.11938 18.6405 1.1378 18.6405 1.15731C18.6405 1.24966 18.5657 1.32449 18.4733 1.32449C18.4304 1.32449 18.3915 1.30777 18.3619 1.28109C18.3848 1.34601 18.4462 1.39289 18.5189 1.39289C18.6113 1.39289 18.6861 1.31805 18.6861 1.2257C18.6861 1.1764 18.6644 1.13251 18.6304 1.10193Z" fill="#FFAB2A"/>
<path d="M19.1437 5.08866V2.90278C19.1284 2.52787 18.6751 2.48228 18.5966 2.44939C18.518 2.4165 18.5104 2.32275 18.5104 2.32275L18.5046 2.34774L18.4988 2.32275C18.4988 2.32275 18.4912 2.4165 18.4126 2.44939C18.3341 2.48228 17.8808 2.52793 17.8655 2.90278V5.08866L17.8365 5.21292C17.8365 5.57385 18.1291 5.86645 18.4901 5.86645C18.4949 5.86645 18.4997 5.86584 18.5045 5.86572C18.5094 5.86584 18.5141 5.86645 18.519 5.86645C18.8799 5.86645 19.1725 5.57385 19.1725 5.21292L19.1437 5.08866Z" fill="#FCD263"/>
<path opacity="0.4" d="M19.1435 5.08866V2.90278C19.1283 2.52787 18.675 2.48228 18.5964 2.44939C18.5179 2.4165 18.5103 2.32275 18.5103 2.32275L18.5045 2.34774L18.4986 2.32275C18.4986 2.32275 18.491 2.4165 18.4125 2.44939C18.3959 2.45632 18.3621 2.4641 18.3198 2.4751C18.4434 2.50921 18.8255 2.57584 18.8395 2.91986V5.10575L18.8685 5.23001C18.8685 5.52923 18.6671 5.78098 18.3927 5.85843C18.4245 5.86323 18.4569 5.86645 18.49 5.86645C18.4949 5.86645 18.4997 5.86584 18.5045 5.86572C18.5094 5.86584 18.5141 5.86645 18.519 5.86645C18.8799 5.86645 19.1725 5.57385 19.1725 5.21292L19.1435 5.08866Z" fill="#FFAB2A"/>
<path d="M18.5188 6.20103C19.1176 6.20103 19.603 5.71565 19.603 5.1169C19.603 4.51816 19.1176 4.03278 18.5188 4.03278C17.9201 4.03278 17.4347 4.51816 17.4347 5.1169C17.4347 5.71565 17.9201 6.20103 18.5188 6.20103Z" fill="#FEBD44"/>
<path d="M18.9243 4.11169C19.0121 4.26824 19.0625 4.44837 19.0625 4.64053C19.0625 5.23929 18.5771 5.72466 17.9783 5.72466C17.8349 5.72466 17.6984 5.69615 17.5731 5.64557C17.7586 5.97671 18.1124 6.20085 18.519 6.20085C19.1178 6.20085 19.6032 5.71548 19.6032 5.11673C19.6032 4.66139 19.3222 4.27231 18.9243 4.11169Z" fill="#FFAB2A"/>
<path d="M17.3602 6.25682L16.9245 6.13018L16.8131 5.5425L17.9783 5.11694H19.0625L20.177 5.5425L20.0756 6.13018L19.5285 6.33281L17.3602 6.25682Z" fill="#EF8F14"/>
<path d="M17.2358 5.78571L17.9784 5.54254H19.0625L19.8022 5.78571V6.93063L17.2358 6.97118V5.78571Z" fill="#FEBD44"/>
<path d="M17.2357 7.63987L16.9347 7.47774L16.8131 6.94075L17.9783 6.4848H19.0422L20.177 6.94075L20.0858 7.52838L19.8021 7.63987H17.2357Z" fill="#EA9315"/>
<path d="M17.2358 15.9067V7.37633L17.9784 7.11285V15.7708L17.2358 15.9067Z" fill="#FFAB2A"/>
<path d="M18.9917 7.11285H17.9785V15.7708H18.9917V7.11285Z" fill="#FCD967"/>
<path d="M19.8021 7.37633L18.9916 7.11285V15.7708L19.8021 15.2389V7.37633Z" fill="#FFAB2A"/>
<path d="M16.3673 15.4057L15.957 15.8363L18.9409 16.0034H19.5944L21.0332 15.8059L20.6684 15.4057L19.7109 14.9497L19.3259 14.7521H17.6491L16.3673 15.4057Z" fill="#FED76A"/>
<path d="M18.8091 8.77304V7.62812C18.8091 7.44344 18.6594 7.29376 18.4747 7.29376C18.29 7.29376 18.1404 7.44344 18.1404 7.62812V8.77304H18.8091Z" fill="#1F263F"/>
<path d="M19.6297 8.70983V7.76978C19.6297 7.63549 19.5209 7.52661 19.3866 7.52661C19.2523 7.52661 19.1434 7.63549 19.1434 7.76978V8.78631C19.3068 8.77208 19.4683 8.74071 19.6297 8.70983Z" fill="#1F263F"/>
<path d="M17.3639 8.70983V7.76978C17.3639 7.63549 17.4727 7.52661 17.607 7.52661C17.7413 7.52661 17.8502 7.63549 17.8502 7.76978V8.78631C17.6869 8.77208 17.5253 8.74071 17.3639 8.70983Z" fill="#1F263F"/>
<path d="M16.4178 16.586L15.8351 16.4036L15.9567 15.8362L17.6691 15.2992H19.351L21.0329 15.8058L21.1343 16.4239L20.5872 16.586H16.4178Z" fill="#FFAB2A"/>
<path d="M20.2478 20.4064H16.7421V28.0664H20.2478V20.4064Z" fill="#FBAF2F"/>
<path d="M20.248 20.4064H18.485V28.0664H20.248V20.4064Z" fill="#E89823"/>
<path d="M19.2988 26.5393V22.2436C19.2988 21.7997 18.9389 21.4398 18.495 21.4398C18.0511 21.4398 17.6912 21.7997 17.6912 22.2436V26.5393H19.2988Z" fill="#1F263F"/>
<path d="M18.495 21.4398C18.0511 21.4398 17.6912 21.7997 17.6912 22.2436V22.5448C17.6912 22.1009 18.0511 21.741 18.495 21.741C18.9389 21.741 19.2988 22.1009 19.2988 22.5448V22.2436C19.2988 21.7997 18.9389 21.4398 18.495 21.4398Z" fill="#1F263F"/>
<path d="M16.7421 20.4067L16.4178 19.3504H20.5974L20.2478 20.4067H16.7421Z" fill="#EA9315"/>
<path d="M19.3511 15.7707H17.6641V19.3499H19.3511V15.7707Z" fill="#FCD967"/>
<path d="M16.4178 16.1658V19.3499H17.6641V15.7707L16.4178 16.1658Z" fill="#FFAB2A"/>
<path d="M19.3512 15.7707L20.5975 16.2266V19.3499H19.3512V15.7707Z" fill="#FFAB2A"/>
<path d="M19.1538 17.0474H17.8164V18.8104H19.1538V17.0474Z" fill="#1F263F"/>
<path d="M17.5323 17.0474L16.5293 17.2449V18.633L17.5323 18.8104V17.0474Z" fill="#1F263F"/>
<path d="M19.4728 17.0474L20.4759 17.2449V18.633L19.4728 18.8104V17.0474Z" fill="#1F263F"/>
<path d="M16.4178 16.5862V16.0545L17.6641 15.5733H19.3511L20.5974 16.2268L20.5872 16.5862H16.4178Z" fill="#CECBC0"/>
<path d="M17.9784 5.54254V6.48484L17.2358 6.77543V5.78571L17.9784 5.54254Z" fill="#FFAB2A"/>
<path d="M19.0624 5.54254L19.0422 6.48484L19.8021 6.79014V5.78571L19.0624 5.54254Z" fill="#FFAB2A"/>
<path d="M46.3209 2.78634L46.4663 0L46.5641 2.78634H46.3209Z" fill="#FCD466"/>
<path opacity="0.4" d="M46.3209 2.78634L46.4663 0L46.5641 2.78634H46.3209Z" fill="#FFAB2A"/>
<path d="M46.4375 2.05178C46.5802 2.05178 46.6959 1.9361 46.6959 1.79341C46.6959 1.65071 46.5802 1.53503 46.4375 1.53503C46.2948 1.53503 46.1791 1.65071 46.1791 1.79341C46.1791 1.9361 46.2948 2.05178 46.4375 2.05178Z" fill="#FCD466"/>
<path opacity="0.4" d="M46.6434 1.63885C46.6437 1.64323 46.6447 1.64731 46.6447 1.65168C46.6447 1.79436 46.529 1.91005 46.3863 1.91005C46.3019 1.91005 46.2277 1.86896 46.1805 1.8064C46.1874 1.943 46.2993 2.05194 46.4376 2.05194C46.5803 2.05194 46.696 1.93626 46.696 1.79357C46.696 1.73527 46.676 1.68214 46.6434 1.63885Z" fill="#FFAB2A"/>
<path d="M46.4666 1.39326C46.5589 1.39326 46.6338 1.31841 46.6338 1.22608C46.6338 1.13375 46.5589 1.0589 46.4666 1.0589C46.3743 1.0589 46.2994 1.13375 46.2994 1.22608C46.2994 1.31841 46.3743 1.39326 46.4666 1.39326Z" fill="#FCD466"/>
<path opacity="0.4" d="M46.5777 1.10193C46.5839 1.11938 46.5879 1.1378 46.5879 1.15731C46.5879 1.24966 46.5131 1.32449 46.4207 1.32449C46.3777 1.32449 46.3389 1.30777 46.3093 1.28109C46.3322 1.34601 46.3935 1.39289 46.4663 1.39289C46.5587 1.39289 46.6335 1.31805 46.6335 1.2257C46.6335 1.1764 46.6117 1.13251 46.5777 1.10193Z" fill="#FFAB2A"/>
<path d="M47.0908 5.08866V2.90278C47.0756 2.52787 46.6223 2.48228 46.5437 2.44939C46.4652 2.4165 46.4576 2.32275 46.4576 2.32275L46.4518 2.34774L46.4459 2.32275C46.4459 2.32275 46.4383 2.4165 46.3598 2.44939C46.2812 2.48228 45.828 2.52793 45.8127 2.90278V5.08866L45.7837 5.21292C45.7837 5.57385 46.0763 5.86645 46.4372 5.86645C46.4421 5.86645 46.4468 5.86584 46.4517 5.86572C46.4566 5.86584 46.4613 5.86645 46.4662 5.86645C46.8271 5.86645 47.1197 5.57385 47.1197 5.21292L47.0908 5.08866Z" fill="#FCD263"/>
<path opacity="0.4" d="M47.091 5.08866V2.90278C47.0757 2.52787 46.6225 2.48228 46.5439 2.44939C46.4654 2.4165 46.4578 2.32275 46.4578 2.32275L46.4519 2.34774L46.4461 2.32275C46.4461 2.32275 46.4385 2.4165 46.36 2.44939C46.3434 2.45632 46.3096 2.4641 46.2673 2.4751C46.3909 2.50921 46.773 2.57584 46.787 2.91986V5.10575L46.816 5.23001C46.816 5.52923 46.6146 5.78098 46.3402 5.85843C46.372 5.86323 46.4043 5.86645 46.4375 5.86645C46.4424 5.86645 46.4471 5.86584 46.452 5.86572C46.4569 5.86584 46.4616 5.86645 46.4665 5.86645C46.8274 5.86645 47.12 5.57385 47.12 5.21292L47.091 5.08866Z" fill="#FFAB2A"/>
<path d="M46.4664 6.20103C47.0652 6.20103 47.5506 5.71565 47.5506 5.1169C47.5506 4.51816 47.0652 4.03278 46.4664 4.03278C45.8677 4.03278 45.3823 4.51816 45.3823 5.1169C45.3823 5.71565 45.8677 6.20103 46.4664 6.20103Z" fill="#FEBD44"/>
<path d="M46.8717 4.11169C46.9595 4.26824 47.0099 4.44837 47.0099 4.64053C47.0099 5.23929 46.5245 5.72466 45.9257 5.72466C45.7823 5.72466 45.6458 5.69615 45.5205 5.64557C45.706 5.97671 46.0598 6.20085 46.4664 6.20085C47.0652 6.20085 47.5505 5.71548 47.5505 5.11673C47.5505 4.66139 47.2696 4.27231 46.8717 4.11169Z" fill="#FFAB2A"/>
<path d="M45.3077 6.25682L44.872 6.13018L44.7606 5.5425L45.9258 5.11694H47.01L48.1245 5.5425L48.0231 6.13018L47.476 6.33281L45.3077 6.25682Z" fill="#EF8F14"/>
<path d="M45.1831 5.78571L45.9257 5.54254H47.0098L47.7495 5.78571V6.93063L45.1831 6.97118V5.78571Z" fill="#FEBD44"/>
<path d="M45.1832 7.63987L44.8822 7.47774L44.7606 6.94075L45.9258 6.4848H46.9897L48.1245 6.94075L48.0333 7.52838L47.7496 7.63987H45.1832Z" fill="#EA9315"/>
<path d="M45.1831 15.9067V7.37633L45.9257 7.11285V15.7708L45.1831 15.9067Z" fill="#FFAB2A"/>
<path d="M46.939 7.11285H45.9257V15.7708H46.939V7.11285Z" fill="#FCD967"/>
<path d="M47.7494 7.37633L46.9389 7.11285V15.7708L47.7494 15.2389V7.37633Z" fill="#FFAB2A"/>
<path d="M44.3147 15.4057L43.9044 15.8363L46.8883 16.0034H47.5418L48.9806 15.8059L48.6158 15.4057L47.6583 14.9497L47.2733 14.7521H45.5964L44.3147 15.4057Z" fill="#FED76A"/>
<path d="M46.7566 8.77304V7.62812C46.7566 7.44344 46.6069 7.29376 46.4222 7.29376C46.2375 7.29376 46.0878 7.44344 46.0878 7.62812V8.77304H46.7566Z" fill="#1F263F"/>
<path d="M47.5773 8.70983V7.76978C47.5773 7.63549 47.4685 7.52661 47.3342 7.52661C47.1999 7.52661 47.091 7.63549 47.091 7.76978V8.78631C47.2544 8.77208 47.4159 8.74071 47.5773 8.70983Z" fill="#1F263F"/>
<path d="M45.3112 8.70983V7.76978C45.3112 7.63549 45.4201 7.52661 45.5544 7.52661C45.6887 7.52661 45.7976 7.63549 45.7976 7.76978V8.78631C45.6342 8.77208 45.4726 8.74071 45.3112 8.70983Z" fill="#1F263F"/>
<path d="M44.3656 16.586L43.783 16.4036L43.9045 15.8362L45.6169 15.2992H47.2989L48.9808 15.8058L49.0821 16.4239L48.535 16.586H44.3656Z" fill="#FFAB2A"/>
<path d="M48.1954 20.4064H44.6897V28.0664H48.1954V20.4064Z" fill="#FBAF2F"/>
<path d="M48.1953 20.4064H46.4323V28.0664H48.1953V20.4064Z" fill="#E89823"/>
<path d="M47.2464 26.5393V22.2436C47.2464 21.7997 46.8865 21.4398 46.4426 21.4398C45.9987 21.4398 45.6388 21.7997 45.6388 22.2436V26.5393H47.2464Z" fill="#1F263F"/>
<path d="M46.4426 21.4398C45.9987 21.4398 45.6388 21.7997 45.6388 22.2436V22.5448C45.6388 22.1009 45.9987 21.741 46.4426 21.741C46.8865 21.741 47.2464 22.1009 47.2464 22.5448V22.2436C47.2464 21.7997 46.8865 21.4398 46.4426 21.4398Z" fill="#1F263F"/>
<path d="M44.6898 20.4067L44.3654 19.3504H48.545L48.1954 20.4067H44.6898Z" fill="#EA9315"/>
<path d="M47.2986 15.7707H45.6116V19.3499H47.2986V15.7707Z" fill="#FCD967"/>
<path d="M44.3654 16.1658V19.3499H45.6117V15.7707L44.3654 16.1658Z" fill="#FFAB2A"/>
<path d="M47.2988 15.7707L48.545 16.2266V19.3499H47.2988V15.7707Z" fill="#FFAB2A"/>
<path d="M47.1009 17.0474H45.7634V18.8104H47.1009V17.0474Z" fill="#1F263F"/>
<path d="M45.4799 17.0474L44.4769 17.2449V18.633L45.4799 18.8104V17.0474Z" fill="#1F263F"/>
<path d="M47.4202 17.0474L48.4233 17.2449V18.633L47.4202 18.8104V17.0474Z" fill="#1F263F"/>
<path d="M44.3654 16.5862V16.0545L45.6117 15.5733H47.2987L48.545 16.2268L48.5348 16.5862H44.3654Z" fill="#CECBC0"/>
<path d="M45.9257 5.54254V6.48484L45.1831 6.77543V5.78571L45.9257 5.54254Z" fill="#FFAB2A"/>
<path d="M47.0097 5.54254L46.9894 6.48484L47.7493 6.79014V5.78571L47.0097 5.54254Z" fill="#FFAB2A"/>
<path d="M43.0881 23.9526H22.7224V29.6672H43.0881V23.9526Z" fill="#FDD362"/>
<path d="M53.9704 35.3818H11.8407V37.6312H53.9704V35.3818Z" fill="#FED76A"/>
<path d="M53.9704 35.3818H11.8407V36.0101H53.9704V35.3818Z" fill="#FFE39C"/>
<path d="M49.8822 29.6519H15.7772V35.3665H49.8822V29.6519Z" fill="#FED76A"/>
<path d="M12.3879 38.6039L11.8407 37.6312H53.9704L53.322 38.6039H12.3879Z" fill="#FBAC2B"/>
<path d="M14.5591 29.6675L14.0699 28.6948H51.7415L51.1616 29.6675H14.5591Z" fill="#FBAC2B"/>
<path d="M53.2815 38.6041H12.3877V55.6667H53.2815V38.6041Z" fill="#FED76A"/>
<path d="M32.8837 12.5538C33.0404 12.5538 33.1674 12.4268 33.1674 12.2702C33.1674 12.1135 33.0404 11.9865 32.8837 11.9865C32.7271 11.9865 32.6001 12.1135 32.6001 12.2702C32.6001 12.4268 32.7271 12.5538 32.8837 12.5538Z" fill="#FDC651"/>
<path d="M32.8835 10.854V10.8442L32.883 10.8492L32.8825 10.8442V10.854L32.7458 12.2703H32.8825H32.8835H33.0203L32.8835 10.854Z" fill="#FDC651"/>
<path d="M24.4942 26.6846V25.6245C24.4942 25.3202 24.2476 25.0736 23.9433 25.0736H23.881C23.5767 25.0736 23.3301 25.3202 23.3301 25.6245V26.6846H24.4942Z" fill="#1F263F"/>
<path d="M26.4916 26.6844V25.6243C26.4916 25.32 26.245 25.0734 25.9407 25.0734H25.8784C25.5741 25.0734 25.3275 25.32 25.3275 25.6243V26.6844H26.4916Z" fill="#1F263F"/>
<path d="M28.4891 26.6844V25.6243C28.4891 25.32 28.2424 25.0734 27.9381 25.0734H27.8758C27.5716 25.0734 27.3249 25.32 27.3249 25.6243V26.6844H28.4891Z" fill="#1F263F"/>
<path d="M30.4863 26.6844V25.6243C30.4863 25.32 30.2397 25.0734 29.9354 25.0734H29.8731C29.5689 25.0734 29.3222 25.32 29.3222 25.6243V26.6844H30.4863Z" fill="#1F263F"/>
<path d="M32.4839 26.6844V25.6243C32.4839 25.32 32.2373 25.0734 31.933 25.0734H31.8707C31.5664 25.0734 31.3198 25.32 31.3198 25.6243V26.6844H32.4839Z" fill="#1F263F"/>
<path d="M34.4811 26.6844V25.6243C34.4811 25.32 34.2344 25.0734 33.9302 25.0734H33.8679C33.5636 25.0734 33.317 25.32 33.317 25.6243V26.6844H34.4811Z" fill="#1F263F"/>
<path d="M36.4786 26.6844V25.6243C36.4786 25.32 36.232 25.0734 35.9277 25.0734H35.8654C35.5611 25.0734 35.3145 25.32 35.3145 25.6243V26.6844H36.4786Z" fill="#1F263F"/>
<path d="M38.476 26.6844V25.6243C38.476 25.32 38.2294 25.0734 37.9251 25.0734H37.8628C37.5585 25.0734 37.3119 25.32 37.3119 25.6243V26.6844H38.476Z" fill="#1F263F"/>
<path d="M40.4735 26.6844V25.6243C40.4735 25.32 40.2268 25.0734 39.9225 25.0734H39.8602C39.556 25.0734 39.3093 25.32 39.3093 25.6243V26.6844H40.4735Z" fill="#1F263F"/>
<path d="M42.4709 26.6844V25.6243C42.4709 25.32 42.2242 25.0734 41.92 25.0734H41.8577C41.5534 25.0734 41.3067 25.32 41.3067 25.6243V26.6844H42.4709Z" fill="#1F263F"/>
<path d="M21.0814 35.3818V32.2813C21.0814 31.3915 20.3601 30.6703 19.4704 30.6703H19.288C18.3982 30.6703 17.677 31.3915 17.677 32.2813V35.3818H21.0814Z" fill="#1F263F"/>
<path d="M26.4921 35.3819V32.2814C26.4921 31.3917 25.7709 30.6704 24.8811 30.6704H24.6987C23.809 30.6704 23.0877 31.3917 23.0877 32.2814V35.3819H26.4921Z" fill="#1F263F"/>
<path d="M31.9025 35.3819V32.2814C31.9025 31.3917 31.1812 30.6704 30.2915 30.6704H30.1091C29.2193 30.6704 28.4981 31.3917 28.4981 32.2814V35.3819H31.9025Z" fill="#1F263F"/>
<path d="M37.3132 35.3819V32.2814C37.3132 31.3917 36.5919 30.6704 35.7022 30.6704H35.5198C34.63 30.6704 33.9088 31.3917 33.9088 32.2814V35.3819H37.3132Z" fill="#1F263F"/>
<path d="M42.7238 35.3819V32.2814C42.7238 31.3917 42.0026 30.6704 41.1128 30.6704H40.9304C40.0407 30.6704 39.3194 31.3917 39.3194 32.2814V35.3819H42.7238Z" fill="#1F263F"/>
<path d="M48.1346 35.3819V32.2814C48.1346 31.3917 47.4134 30.6704 46.5236 30.6704H46.3412C45.4515 30.6704 44.7302 31.3917 44.7302 32.2814V35.3819H48.1346Z" fill="#1F263F"/>
<path d="M19.4704 30.6703H19.288C18.3982 30.6703 17.677 31.3915 17.677 32.2813V32.6613C17.677 31.7715 18.3982 31.0502 19.288 31.0502H19.4704C20.3601 31.0502 21.0814 31.7715 21.0814 32.6613V32.2813C21.0814 31.3915 20.3601 30.6703 19.4704 30.6703Z" fill="#1F263F"/>
<path d="M24.8811 30.6704H24.6987C23.809 30.6704 23.0877 31.3917 23.0877 32.2814V32.6614C23.0877 31.7716 23.809 31.0504 24.6987 31.0504H24.8811C25.7709 31.0504 26.4921 31.7716 26.4921 32.6614V32.2814C26.4921 31.3917 25.7709 30.6704 24.8811 30.6704Z" fill="#1F263F"/>
<path d="M30.2915 30.6704H30.1091C29.2193 30.6704 28.4981 31.3917 28.4981 32.2814V32.6614C28.4981 31.7716 29.2193 31.0504 30.1091 31.0504H30.2915C31.1812 31.0504 31.9025 31.7716 31.9025 32.6614V32.2814C31.9025 31.3917 31.1812 30.6704 30.2915 30.6704Z" fill="#1F263F"/>
<path d="M35.7022 30.6704H35.5198C34.63 30.6704 33.9088 31.3917 33.9088 32.2814V32.6614C33.9088 31.7716 34.63 31.0504 35.5198 31.0504H35.7022C36.5919 31.0504 37.3132 31.7716 37.3132 32.6614V32.2814C37.3132 31.3917 36.5919 30.6704 35.7022 30.6704Z" fill="#1F263F"/>
<path d="M41.1128 30.6704H40.9304C40.0407 30.6704 39.3194 31.3917 39.3194 32.2814V32.6614C39.3194 31.7716 40.0407 31.0504 40.9304 31.0504H41.1128C42.0026 31.0504 42.7238 31.7716 42.7238 32.6614V32.2814C42.7238 31.3917 42.0026 30.6704 41.1128 30.6704Z" fill="#1F263F"/>
<path d="M46.5236 30.6704H46.3412C45.4515 30.6704 44.7302 31.3917 44.7302 32.2814V32.6614C44.7302 31.7716 45.4515 31.0504 46.3412 31.0504H46.5236C47.4134 31.0504 48.1346 31.7716 48.1346 32.6614V32.2814C48.1346 31.3917 47.4134 30.6704 46.5236 30.6704Z" fill="#1F263F"/>
<path d="M18.4848 55.6667V44.3963C18.4848 43.2317 17.5407 42.2875 16.376 42.2875C15.2114 42.2875 14.2672 43.2316 14.2672 44.3963V55.6667H18.4848V55.6667Z" fill="#1F263F"/>
<path d="M25.3361 55.6666V44.3963C25.3361 43.2316 24.392 42.2875 23.2273 42.2875C22.0627 42.2875 21.1185 43.2315 21.1185 44.3963V55.6667H25.3361V55.6666Z" fill="#1F263F"/>
<path d="M16.3761 42.2875C15.2115 42.2875 14.2673 43.2316 14.2673 44.3963V45.1866C14.2673 44.022 15.2115 43.0778 16.3761 43.0778C17.5408 43.0778 18.4849 44.0219 18.4849 45.1866V44.3963C18.4849 43.2316 17.5408 42.2875 16.3761 42.2875Z" fill="#1F263F"/>
<path d="M23.2275 42.2877C22.0629 42.2877 21.1187 43.2318 21.1187 44.3965V45.1868C21.1187 44.0221 22.0628 43.078 23.2275 43.078C24.3922 43.078 25.3363 44.0221 25.3363 45.1868V44.3965C25.3363 43.2318 24.3921 42.2877 23.2275 42.2877Z" fill="#1F263F"/>
<path d="M44.6912 55.6667V44.3963C44.6912 43.2317 43.7471 42.2875 42.5824 42.2875C41.4178 42.2875 40.4736 43.2316 40.4736 44.3963V55.6667H44.6912V55.6667Z" fill="#1F263F"/>
<path d="M51.5423 55.6666V44.3963C51.5423 43.2316 50.5982 42.2875 49.4335 42.2875C48.2688 42.2875 47.3247 43.2315 47.3247 44.3963V55.6667H51.5423V55.6666Z" fill="#1F263F"/>
<path d="M42.5824 42.2875C41.4178 42.2875 40.4736 43.2316 40.4736 44.3963V45.1866C40.4736 44.022 41.4178 43.0778 42.5824 43.0778C43.7471 43.0778 44.6912 44.0219 44.6912 45.1866V44.3963C44.6912 43.2316 43.7471 42.2875 42.5824 42.2875Z" fill="#1F263F"/>
<path d="M49.4335 42.2875C48.2689 42.2875 47.3247 43.2315 47.3247 44.3963V45.1866C47.3247 44.0219 48.2688 43.0778 49.4335 43.0778C50.5982 43.0778 51.5423 44.0218 51.5423 45.1866V44.3963C51.5423 43.2315 50.5982 42.2875 49.4335 42.2875Z" fill="#1F263F"/>
<path d="M37.9209 55.6667V47.3638C37.9209 44.5602 35.6481 42.2875 32.8446 42.2875C30.0412 42.2875 27.7684 44.5602 27.7684 47.3638V55.6667H37.9209Z" fill="#1F263F"/>
<path d="M32.8446 42.2875C30.0412 42.2875 27.7684 44.5602 27.7684 47.3638V48.4222C27.7684 45.6186 30.0412 43.3459 32.8446 43.3459C35.6481 43.3459 37.9209 45.6186 37.9209 48.4222V47.3638C37.9209 44.5602 35.6482 42.2875 32.8446 42.2875Z" fill="#1F263F"/>
<path d="M11.5772 41.6436H7.15962V55.6665H11.5772V41.6436Z" fill="#FED76A"/>
<path opacity="0.4" d="M11.5772 46.5481H7.15962V55.6668H11.5772V46.5481Z" fill="#FFAB2A"/>
<path d="M12.3878 41.6436H11.5773V55.6665H12.3878V41.6436Z" fill="#FBAC2B"/>
<path d="M55.698 18.0658L55.5526 15.2794L55.4548 18.0658H55.698Z" fill="#FCD466"/>
<path opacity="0.4" d="M55.698 18.0658L55.5526 15.2794L55.4548 18.0658H55.698Z" fill="#FFAB2A"/>
<path d="M55.5816 17.3312C55.7242 17.3312 55.8399 17.2155 55.8399 17.0728C55.8399 16.9301 55.7242 16.8145 55.5816 16.8145C55.4389 16.8145 55.3232 16.9301 55.3232 17.0728C55.3232 17.2155 55.4389 17.3312 55.5816 17.3312Z" fill="#FCD466"/>
<path opacity="0.4" d="M55.3758 16.9183C55.3755 16.9227 55.3745 16.9267 55.3745 16.9311C55.3745 17.0738 55.4902 17.1895 55.6329 17.1895C55.7172 17.1895 55.7915 17.1484 55.8386 17.0858C55.8318 17.2224 55.7199 17.3314 55.5816 17.3314C55.4389 17.3314 55.3232 17.2157 55.3232 17.073C55.3232 17.0147 55.3432 16.9616 55.3758 16.9183Z" fill="#FFAB2A"/>
<path d="M55.5526 16.6727C55.6449 16.6727 55.7197 16.5978 55.7197 16.5055C55.7197 16.4132 55.6449 16.3383 55.5526 16.3383C55.4602 16.3383 55.3854 16.4132 55.3854 16.5055C55.3854 16.5978 55.4602 16.6727 55.5526 16.6727Z" fill="#FCD466"/>
<path opacity="0.4" d="M55.4411 16.3813C55.4349 16.3988 55.431 16.4172 55.431 16.4367C55.431 16.5291 55.5058 16.6039 55.5982 16.6039C55.6411 16.6039 55.68 16.5872 55.7096 16.5605C55.6867 16.6254 55.6253 16.6723 55.5526 16.6723C55.4602 16.6723 55.3854 16.5975 55.3854 16.5051C55.3854 16.4558 55.4071 16.4119 55.4411 16.3813Z" fill="#FFAB2A"/>
<path d="M54.9279 20.3681V18.1822C54.9432 17.8073 55.3965 17.7617 55.475 17.7288C55.5535 17.6959 55.5611 17.6022 55.5611 17.6022L55.567 17.6272L55.5728 17.6022C55.5728 17.6022 55.5804 17.6959 55.659 17.7288C55.7375 17.7617 56.1908 17.8074 56.206 18.1822V20.3681L56.235 20.4923C56.235 20.8533 55.9424 21.1459 55.5815 21.1459C55.5766 21.1459 55.5719 21.1453 55.567 21.1451C55.5622 21.1453 55.5574 21.1459 55.5526 21.1459C55.1916 21.1459 54.899 20.8533 54.899 20.4923L54.9279 20.3681Z" fill="#FCD263"/>
<path opacity="0.4" d="M54.9277 20.3681V18.1822C54.943 17.8073 55.3963 17.7617 55.4748 17.7288C55.5534 17.6959 55.561 17.6022 55.561 17.6022L55.5668 17.6272L55.5726 17.6022C55.5726 17.6022 55.5802 17.6959 55.6588 17.7288C55.6753 17.7357 55.7092 17.7435 55.7515 17.7545C55.6278 17.7886 55.2457 17.8553 55.2317 18.1993V20.3852L55.2027 20.5094C55.2027 20.8087 55.4041 21.0604 55.6785 21.1378C55.6467 21.1426 55.6144 21.1459 55.5812 21.1459C55.5763 21.1459 55.5716 21.1453 55.5667 21.1451C55.5619 21.1453 55.5571 21.1459 55.5523 21.1459C55.1913 21.1459 54.8987 20.8533 54.8987 20.4923L54.9277 20.3681Z" fill="#FFAB2A"/>
<path d="M55.5524 21.4802C56.1512 21.4802 56.6365 20.9948 56.6365 20.3961C56.6365 19.7973 56.1512 19.312 55.5524 19.312C54.9537 19.312 54.4683 19.7973 54.4683 20.3961C54.4683 20.9948 54.9537 21.4802 55.5524 21.4802Z" fill="#FEBD44"/>
<path d="M55.1471 19.3915C55.0594 19.5481 55.0089 19.7282 55.0089 19.9204C55.0089 20.5191 55.4943 21.0045 56.0931 21.0045C56.2365 21.0045 56.3731 20.976 56.4984 20.9254C56.3129 21.2566 55.9591 21.4807 55.5525 21.4807C54.9537 21.4807 54.4683 20.9953 54.4683 20.3966C54.4683 19.9412 54.7493 19.5522 55.1471 19.3915Z" fill="#FFAB2A"/>
<path d="M56.7111 21.5362L57.1468 21.4096L57.2583 20.8219L56.093 20.3964H55.0089L53.8944 20.8219L53.9957 21.4096L54.5429 21.6122L56.7111 21.5362Z" fill="#EF8F14"/>
<path d="M56.8358 21.0651L56.0932 20.822H55.009L54.2694 21.0651V22.2101L56.8358 22.2506V21.0651Z" fill="#FEBD44"/>
<path d="M56.8357 22.919L57.1367 22.7569L57.2583 22.2199L56.093 21.764H55.0291L53.8944 22.2199L53.9856 22.8076L54.2692 22.919H56.8357Z" fill="#EA9315"/>
<path d="M56.8356 31.1861V22.6557L56.0929 22.3923V31.0503L56.8356 31.1861Z" fill="#FFAB2A"/>
<path d="M56.0932 22.3923H55.0799V31.0503H56.0932V22.3923Z" fill="#FCD967"/>
<path d="M54.2694 22.6557L55.0799 22.3923V31.0503L54.2694 30.5183V22.6557Z" fill="#FFAB2A"/>
<path d="M57.7042 30.6851L58.1145 31.1157L55.1306 31.2829H54.477L53.0382 31.0853L53.4031 30.6851L54.3606 30.2291L54.7456 30.0316H56.4224L57.7042 30.6851Z" fill="#FED76A"/>
<path d="M55.2623 24.0525V22.9075C55.2623 22.7229 55.412 22.5732 55.5967 22.5732C55.7814 22.5732 55.931 22.7229 55.931 22.9075V24.0525H55.2623Z" fill="#1F263F"/>
<path d="M54.4417 23.9895V23.0494C54.4417 22.9152 54.5506 22.8063 54.6849 22.8063C54.8191 22.8063 54.928 22.9152 54.928 23.0494V24.066C54.7647 24.0517 54.6031 24.0204 54.4417 23.9895Z" fill="#1F263F"/>
<path d="M56.7074 23.9895V23.0494C56.7074 22.9152 56.5986 22.8063 56.4643 22.8063C56.33 22.8063 56.2211 22.9152 56.2211 23.0494V24.066C56.3844 24.0517 56.546 24.0204 56.7074 23.9895Z" fill="#1F263F"/>
<path d="M57.6535 31.8654L58.2362 31.683L58.1146 31.1156L56.4022 30.5786H54.7203L53.0384 31.0852L52.937 31.7033L53.4842 31.8654H57.6535Z" fill="#FFAB2A"/>
<path d="M57.329 35.6856H53.8234V43.3456H57.329V35.6856Z" fill="#FBAF2F"/>
<path d="M55.5864 35.6856H53.8234V43.3456H55.5864V35.6856Z" fill="#E89823"/>
<path d="M54.7724 41.8191V37.5233C54.7724 37.0794 55.1323 36.7195 55.5762 36.7195C56.0201 36.7195 56.38 37.0794 56.38 37.5233V41.8191H54.7724Z" fill="#1F263F"/>
<path d="M55.5762 36.7195C56.0202 36.7195 56.38 37.0794 56.38 37.5232V37.8245C56.38 37.3806 56.0202 37.0207 55.5762 37.0207C55.1323 37.0207 54.7724 37.3806 54.7724 37.8245V37.5232C54.7725 37.0794 55.1324 36.7195 55.5762 36.7195Z" fill="#1F263F"/>
<path d="M57.3293 35.6856L57.6537 34.6293H53.4741L53.8237 35.6856H57.3293Z" fill="#EA9315"/>
<path d="M56.4072 31.0501H54.7202V34.6293H56.4072V31.0501Z" fill="#FCD967"/>
<path d="M57.6536 31.4453V34.6293H56.4074V31.0501L57.6536 31.4453Z" fill="#FFAB2A"/>
<path d="M54.7204 31.0501L53.4741 31.5061V34.6293H54.7204V31.0501Z" fill="#FFAB2A"/>
<path d="M56.2553 32.3268H54.9178V34.0898H56.2553V32.3268Z" fill="#1F263F"/>
<path d="M56.539 32.3268L57.5421 32.5244V33.9125L56.539 34.0898V32.3268Z" fill="#1F263F"/>
<path d="M54.5985 32.3268L53.5954 32.5244V33.9125L54.5985 34.0898V32.3268Z" fill="#1F263F"/>
<path d="M57.6537 31.8654V31.3337L56.4074 30.8525H54.7204L53.4741 31.506L53.4843 31.8654H57.6537Z" fill="#CECBC0"/>
<path d="M56.0929 20.822V21.7643L56.8356 22.0548V21.0651L56.0929 20.822Z" fill="#FFAB2A"/>
<path d="M55.009 20.822L55.0293 21.7643L54.2694 22.0696V21.0651L55.009 20.822Z" fill="#FFAB2A"/>
<path d="M58.5045 41.6436H54.0869V55.6665H58.5045V41.6436Z" fill="#FED76A"/>
<path opacity="0.4" d="M58.5045 46.5308H54.0869V55.6664H58.5045V46.5308Z" fill="#FFAB2A"/>
<path d="M54.0869 41.6436H53.2764V55.6665H54.0869V41.6436Z" fill="#FBAC2B"/>
<path d="M43.4329 23.2029H22.3781V23.9526H43.4329V23.2029Z" fill="#F48F0C"/>
<path opacity="0.5" d="M43.0881 23.9526H22.7224V24.4998H43.0881V23.9526Z" fill="#F48F0C"/>
<path d="M51.7415 26.445H14.0699V28.6944H51.7415V26.445Z" fill="#FED76A"/>
<path d="M51.7415 26.445H14.0699V27.5697H51.7415V26.445Z" fill="#FFE39C"/>
<path d="M34.5546 10.9757C32.6393 10.9757 31.0868 9.42313 31.0868 7.5079C31.0868 5.80362 32.3162 4.3866 33.9365 4.09509C33.9298 4.09503 33.9232 4.09485 33.9166 4.09485C31.853 4.09485 30.1802 5.7677 30.1802 7.8312C30.1802 9.89471 31.853 11.5676 33.9166 11.5676C35.162 11.5676 36.265 10.958 36.9439 10.0211C36.322 10.6126 35.4807 10.9757 34.5546 10.9757Z" fill="#FDC651"/>
<path opacity="0.4" d="M53.2764 38.6041H12.3877V40.2455H53.2764V38.6041Z" fill="#FFAB2A"/>
<path opacity="0.4" d="M49.8822 29.6519H15.7772V30.2798H49.8822V29.6519Z" fill="#FFAB2A"/>
<path d="M11.2192 53.6351C11.2192 53.8395 11.0535 54.0051 10.8491 54.0051C10.6447 54.0051 10.4791 53.8395 10.4791 53.6351V42.798C10.4791 42.5936 10.6448 42.4279 10.8491 42.4279C11.0535 42.4279 11.2192 42.5936 11.2192 42.798V53.6351Z" fill="#C9C9C9"/>
<path d="M55.4724 53.6351C55.4724 53.8395 55.3067 54.0051 55.1023 54.0051C54.898 54.0051 54.7322 53.8395 54.7322 53.6351V42.798C54.7322 42.5936 54.898 42.4279 55.1023 42.4279C55.3067 42.4279 55.4724 42.5936 55.4724 42.798V53.6351Z" fill="#C9C9C9"/>
<path d="M39.2691 52.5535C39.2691 52.7579 39.1033 52.9236 38.899 52.9236C38.6946 52.9236 38.5289 52.7579 38.5289 52.5535V41.7164C38.5289 41.512 38.6946 41.3464 38.899 41.3464C39.1033 41.3464 39.2691 41.512 39.2691 41.7164V52.5535Z" fill="#C9C9C9"/>
<path d="M29.3224 27.086C29.3224 27.2383 29.1989 27.3619 29.0465 27.3619H19.8063C19.654 27.3619 19.5305 27.2383 19.5305 27.086C19.5305 26.9336 19.654 26.8101 19.8063 26.8101H29.0465C29.1989 26.8101 29.3224 26.9337 29.3224 27.086Z" fill="#C9C9C9"/>
<path d="M37.7684 27.086C37.7684 27.2383 37.6449 27.3619 37.4925 27.3619H31.3875C31.2351 27.3619 31.1116 27.2383 31.1116 27.086C31.1116 26.9336 31.2351 26.8101 31.3875 26.8101H37.4926C37.6449 26.8101 37.7684 26.9337 37.7684 27.086Z" fill="#C9C9C9"/>
<path d="M26.4921 36.6784C26.4921 36.8714 26.3356 37.0279 26.1425 37.0279H16.1268C15.9337 37.0279 15.7772 36.8714 15.7772 36.6784C15.7772 36.4853 15.9337 36.3288 16.1268 36.3288H26.1425C26.3356 36.3288 26.4921 36.4853 26.4921 36.6784Z" fill="#C9C9C9"/>
<path d="M36.4787 36.6784C36.4787 36.8714 36.3222 37.0279 36.1291 37.0279H29.1712C28.9781 37.0279 28.8217 36.8714 28.8217 36.6784C28.8217 36.4853 28.9781 36.3288 29.1712 36.3288H36.1291C36.3221 36.3288 36.4787 36.4853 36.4787 36.6784Z" fill="#C9C9C9"/>
<path d="M18.7459 13.47C18.7459 13.5878 18.6504 13.6833 18.5327 13.6833C18.415 13.6833 18.3195 13.5878 18.3195 13.47V9.8841C18.3195 9.76634 18.415 9.6709 18.5327 9.6709C18.6505 9.6709 18.7459 9.76634 18.7459 9.8841V13.47Z" fill="#C9C9C9"/>
<path d="M46.7771 13.2347C46.7771 13.3525 46.6817 13.4479 46.5639 13.4479C46.4461 13.4479 46.3507 13.3525 46.3507 13.2347V9.64875C46.3507 9.53099 46.4461 9.43555 46.5639 9.43555C46.6817 9.43555 46.7771 9.53099 46.7771 9.64875V13.2347Z" fill="#C9C9C9"/>
<path d="M55.9198 29.1547C55.9198 29.2724 55.8244 29.3679 55.7066 29.3679C55.5888 29.3679 55.4934 29.2724 55.4934 29.1547V25.5687C55.4934 25.451 55.5888 25.3555 55.7066 25.3555C55.8244 25.3555 55.9198 25.451 55.9198 25.5687V29.1547Z" fill="#C9C9C9"/>
<path d="M10.2788 29.4405C10.2788 29.5657 10.1774 29.6672 10.0522 29.6672C9.92701 29.6672 9.82555 29.5657 9.82555 29.4405V25.6125C9.82555 25.4873 9.92701 25.3859 10.0522 25.3859C10.1774 25.3859 10.2788 25.4873 10.2788 25.6125V29.4405Z" fill="#C9C9C9"/>
<path d="M20.429 45.3081C20.429 45.4333 20.3276 45.5348 20.2024 45.5348C20.0772 45.5348 19.9758 45.4333 19.9758 45.3081V41.4801C19.9758 41.3549 20.0772 41.2535 20.2024 41.2535C20.3276 41.2535 20.429 41.3549 20.429 41.4801V45.3081Z" fill="#C9C9C9"/>
<path d="M13.9912 53.7239C13.9912 53.849 13.8898 53.9505 13.7646 53.9505C13.6394 53.9505 13.538 53.849 13.538 53.7239V49.8958C13.538 49.7706 13.6394 49.6692 13.7646 49.6692C13.8898 49.6692 13.9912 49.7706 13.9912 49.8958V53.7239Z" fill="#C9C9C9"/>
<path d="M46.659 51.6676C46.659 51.7928 46.5575 51.8943 46.4323 51.8943C46.3071 51.8943 46.2057 51.7928 46.2057 51.6676V47.8396C46.2057 47.7144 46.3071 47.613 46.4323 47.613C46.5575 47.613 46.659 47.7144 46.659 47.8396V51.6676Z" fill="#C9C9C9"/>
<path d="M7.1596 46.517H0.714966V55.6665H7.1596V46.517Z" fill="#FED76A"/>
<path d="M62.9998 46.517H58.5118V55.6665H62.9998V46.517Z" fill="#FED76A"/>
</svg>
